# xmcd
#
# Track frame offsets:
#	150
#	20669
#	46533
#	65802
#	85005
#	107143
#	127637
#	146739
#	164589
#	183763
#
# Disc length: 2760 seconds
#
# Revision: 1
# Processed by: cddbd v1.5.2PL0 Copyright (c) Steve Scherf et al.
# Submitted via: audiograbber 1.83.01
#
DISCID=7e0ac60a
DTITLE=Oum - Zarabi
DYEAR=2016
DGENRE=World Music
TTITLE0=Nia
TTITLE1=Lila
TTITLE2=Hna
TTITLE3=Jini
TTITLE4=Ah wah
TTITLE5=Wali
TTITLE6=Mansit
TTITLE7=N'nay
TTITLE8=Saadi
TTITLE9=Veinte años
EXTD=
EXTT0=
EXTT1=
EXTT2=
EXTT3=
EXTT4=
EXTT5=
EXTT6=
EXTT7=
EXTT8=
EXTT9=
PLAYORDER=
